<svg xmlns="http://www.w3.org/2000/svg" viewBox="0 0 256 256" width="100%" height="100%">
  <path fill='#fff' d="M128 0C57.308 0 0 57.308 0 128s57.308 128 128 128 128-57.304 128-128C256 57.308 198.696 0 128 0m0 240.252c-61.756 0-112-50.496-112-112.252S66.244 16 128 16s112 50.244 112 112-50.244 112.252-112 112.252m45.252-157.504a8 8 0 0 0-11.312 0L128 116.688l-33.94-33.94A8 8 0 0 0 82.744 94.06l33.94 33.94-33.94 33.94a8 8 0 1 0 11.316 11.312l33.94-33.94 33.94 33.94a8 8 0 1 0 11.312-11.312L139.312 128l33.94-33.94a8 8 0 0 0 0-11.312"/>
</svg>
